
        <svg xmlns="http://www.w3.org/2000/svg" xmlns:xlink="http://www.w3.org/1999/xlink" version="1.1" width="3033.7170713436108" 
        height="3275.7924610312375" viewBox="0 -68.94811525780935 3033.7170713436108 3275.7924610312375">
			<rect fill="#ffffff" width="3033.7170713436108" height="3275.7924610312375"/>
			<g transform="scale(13.789623051561868) translate(10, 10)">
				<defs id="SvgjsDefs2709"><linearGradient id="SvgjsLinearGradient2714"><stop id="SvgjsStop2715" stop-color="#2d388a" offset="0"></stop><stop id="SvgjsStop2716" stop-color="#00aeef" offset="1"></stop></linearGradient></defs><g id="SvgjsG2710" featureKey="symbolFeature-0" transform="matrix(1.0377749297639773,0,0,1.0377749297639773,48.61125400665078,-31.15517127670774)" fill="#0086e6"><g xmlns="http://www.w3.org/2000/svg" transform="translate(0,-952.36218)"><path style="text-indent:0;text-transform:none;direction:ltr;block-progression:tb;baseline-shift:baseline;color:;enable-background:accumulate;" d="m 53.593797,977.56534 -13,47.99996 5.8124,1.5937 13,-47.99991 -5.8124,-1.59375 z m -20.4688,3.4375 -23.9999995,18.99996 -2.9688,2.375 2.9688,2.3438 23.9999995,19 3.75,-4.7188 -21.031199,-16.625 21.031199,-16.65622 -3.75,-4.71875 z m 33.750001,0 -3.750001,4.71875 21.031206,16.65621 -21.031206,16.625 3.750001,4.7188 24.000004,-19 2.968801,-2.3438 -2.968801,-2.375 -24.000004,-18.99996 z" fill="#0086e6" fill-opacity="1" stroke="none" marker="none" visibility="visible" display="inline" overflow="visible"></path></g></g><g id="SvgjsG2711" featureKey="nameFeature-0" transform="matrix(4.1282877253267545,0,0,4.1282877253267545,5.970446397567223,37.85051602809158)" fill="url(#SvgjsLinearGradient2714)"><path d="M19.16 11.280000000000001 c-1.08 1.84 -2.44 4.12 -3.32 6 c-0.72 1.52 -4.28 8 -5.32 10.52 c0.84 4.64 1.28 7.76 3.08 12.12 c-1.16 2.08 -3.36 2.52 -4 1.68 c-0.12 -0.16 -0.24 -0.44 -0.36 -0.88 c-0.88 0.24 -1.72 0.08 -2.28 -0.64 c-0.32 -0.44 -0.68 -1.72 -1 -3.16 c-0.16 1.2 -0.32 2.36 -0.44 3.88 c-0.76 0.88 -4.08 2.32 -4.16 0.96 l0 -0.84 c-1.52 0.44 -2.76 0 -2.8 -1.12 c-0.16 -3.36 2.8 -23.4 4.52 -28.76 c0.64 -1.96 3.96 -2.8 6.2 -1.36 c-0.2 0.68 -0.4 1.32 -0.6 1.96 c0.6 -0.04 1.16 0.08 1.6 0.32 c0.72 -1.32 1.32 -2.36 1.64 -2.68 c1.32 -1.4 5.56 -1.96 6.08 0.12 l-0.8 1.4 c1 -0.04 1.88 0.2 1.96 0.48 z M16.92 9.280000000000001 c-0.36 -0.28 -2.96 -0.68 -4.28 0.68 c-0.8 0.88 -4.56 8.52 -6.4 12.36 c-0.44 0.88 -1.16 1.12 -1.08 0.52 c0.72 -4.44 1.6 -8.48 2.96 -12.72 c-1.36 -0.72 -3.72 0.04 -4.08 1.24 c-1.68 5.24 -4.64 25.2 -4.48 28.4 c0.04 0.56 0.76 0.44 1.56 0.16 c0.88 -0.28 1.84 -0.8 2.2 -1.2 c0.16 -2.2 0.44 -3.56 0.64 -5.56 c0.36 -0.76 0.92 -1.96 1.56 -3.12 c0.32 1.32 0.68 3.36 1.08 5.28 c0.44 1.96 0.84 3.76 1.16 4.16 c0.48 0.64 2.48 0.44 3.64 -1.56 c-0.88 -2.16 -1.44 -4.04 -1.88 -5.92 c-0.44 -1.92 -0.76 -3.84 -1.2 -6.2 c1.04 -2.6 4.64 -9.08 5.36 -10.6 c0.84 -1.88 2.2 -4.12 3.24 -5.92 z M31.119999999999997 11.04 c0.12 1.04 -0.76 4.32 -2.04 4.88 c-1.04 0.44 -2.84 0.24 -4.12 0.8 c-0.32 0.68 -0.72 1.92 -1.04 3.24 c0.72 -0.16 1.44 -0.28 2.4 -0.28 c0.28 1.08 0.2 2.12 -0.08 3 c0.52 -0.12 1.04 -0.2 1.48 -0.2 c0.4 1.76 -0.92 3.92 -2.08 4.72 c-0.64 0.44 -2.2 0.72 -3 1.04 c-0.36 1.2 -0.64 3.12 -0.88 4.88 l2.76 -0.84 c0.24 1.24 0.2 2.4 0 3.44 c0.48 -0.16 0.92 -0.32 1.4 -0.44 c0.4 1.92 -0.72 4.32 -1.56 5 c-1.56 1.24 -4.8 1.96 -6.68 1.56 c-0.48 -0.08 -0.92 -0.56 -1.04 -1.08 c-0.4 -0.04 -0.8 -0.08 -1.12 -0.12 c-0.96 -0.2 -1.8 -1.24 -1.72 -2.4 c0.64 -7.08 1.88 -13.56 3.36 -20.24 c0.16 -0.76 0.64 -1.28 1.16 -1.72 c-0.28 0.08 -0.6 0.2 -0.88 0.28 c-0.52 0.16 -0.96 0.24 -2 0.2 c0.08 -2.44 1.28 -5.08 2.48 -6.24 c1.44 -1.44 9.44 -2.72 11.96 -2.12 c0.04 0.64 0 1.6 -0.24 2.56 c0.64 0 1.16 0 1.48 0.08 z M28.96 9.2 c-2 -0.32 -9.24 0.96 -10.36 2.04 c-0.96 0.92 -1.96 3.12 -2.12 4.56 c1.04 -0.2 2.12 -0.8 3.16 -0.88 c0.96 -0.08 0.76 0.68 0.32 1.16 c-0.6 0.64 -1.6 1.24 -1.8 2.12 c-1.48 6.64 -2.72 13.08 -3.36 20.12 c-0.04 0.64 0.44 1.24 0.92 1.32 c1.84 0.36 5 -0.32 6.52 -1.52 c0.76 -0.6 1.76 -2.8 1.52 -4.56 c-1.4 0.4 -3.16 1.04 -4.56 1.04 c0.16 -1.8 0.6 -6.24 1.28 -8.52 c0.8 -0.32 2.4 -0.6 3.04 -1.04 c1.08 -0.76 2.32 -2.72 2.04 -4.36 c-0.6 0.04 -1.28 0.2 -2 0.4 c-0.8 0.24 -1.56 0.48 -2.44 0.6 c0.16 -2.6 1.04 -5.76 1.68 -7.12 c1.08 -0.44 2.2 -0.44 3.36 -0.6 c0.32 -0.04 0.6 -0.12 0.84 -0.24 c1.12 -0.48 1.96 -3.36 1.96 -4.52 z M47 11.2 c-2.84 5.44 -5.24 22.48 -5.8 28.52 c-0.6 1.48 -2.96 2.64 -4.44 2.28 c-0.12 -0.44 -0.24 -0.88 -0.36 -1.36 c-0.76 0.2 -1.56 0.2 -2.28 0.04 c-0.52 -1.8 -0.96 -3.88 -1.28 -6.04 c-0.24 1.92 -0.4 3.84 -0.32 5.8 c-0.96 1.24 -4.44 2.6 -4.4 1.28 l0 -0.92 c-1.6 0.52 -2.84 0 -2.8 -1.08 c0.16 -9.04 2.24 -18.24 3.96 -27.08 c0.4 -2.08 5.68 -3.92 7.2 -2.48 c-0.08 0.76 -0.12 1.48 -0.16 2.2 c0.64 -0.08 1.12 -0.08 1.32 0.12 c-0.16 1.76 -0.2 3.44 -0.12 5.12 c0.44 -2.56 1 -5.12 1.88 -7.6 c1.48 -1.2 3.84 -1.76 6.84 -1.52 c-0.4 0.8 -0.8 1.72 -1.16 2.8 c0.64 -0.12 1.32 -0.16 1.92 -0.08 z M44.68 9.36 c-1.56 -0.04 -3.44 0.48 -4.44 1.24 c-1.56 4.36 -1.8 9.08 -2.88 13.56 c-0.16 0.52 -0.96 0.8 -1.04 0.24 c-0.76 -4.4 -1.28 -9 -0.88 -13.84 c-0.8 -0.4 -4.92 0.88 -5.2 2.28 c-0.72 3.72 -1.64 8.32 -2.44 13.08 c-0.76 4.72 -1.4 9.6 -1.48 13.8 c0 0.56 0.72 0.4 1.56 0.12 c0.96 -0.32 1.96 -0.92 2.44 -1.48 c-0.2 -4.36 0.84 -8.64 1.44 -12.92 c0.08 -0.72 0.88 -0.96 0.96 -0.16 c0.44 4.4 1.04 10.6 2.2 14.56 c1.4 0.24 3.52 -0.84 4.08 -2.16 c0.56 -5.96 2.88 -22.52 5.68 -28.32 z"></path></g>
			</g>
		</svg>
	